<svg width="252" height="252" viewBox="0 0 252 252" fill="none" xmlns="http://www.w3.org/2000/svg">
<circle cx="126" cy="126" r="126" fill="#EFD81D"/>
<path d="M164.15 197.1C160.617 197.1 157.617 196.2 155.15 194.4C152.717 192.567 151 189.933 150 186.5L157.9 183.55C159.033 187.45 161.033 189.4 163.9 189.4C165.267 189.4 166.35 188.933 167.15 188C167.983 187.033 168.4 185.767 168.4 184.2V161.55H177V184.2C177 186.767 176.467 189.033 175.4 191C174.367 192.933 172.883 194.433 170.95 195.5C169.05 196.567 166.783 197.1 164.15 197.1Z" fill="black"/>
<path d="M194.03 197.1C191.364 197.1 188.847 196.7 186.48 195.9C184.147 195.1 181.847 193.933 179.58 192.4L183.78 185.95C186.014 187.417 187.93 188.483 189.53 189.15C191.13 189.783 192.697 190.1 194.23 190.1C195.33 190.1 196.264 189.95 197.03 189.65C197.83 189.35 198.447 188.933 198.88 188.4C199.314 187.867 199.53 187.25 199.53 186.55C199.53 185.55 199.18 184.783 198.48 184.25C197.78 183.717 196.864 183.3 195.73 183C194.597 182.667 193.347 182.383 191.98 182.15C190.614 181.883 189.247 181.567 187.88 181.2C186.514 180.8 185.264 180.25 184.13 179.55C182.997 178.85 182.08 177.917 181.38 176.75C180.68 175.55 180.33 174 180.33 172.1C180.33 169.8 180.864 167.833 181.93 166.2C182.997 164.533 184.53 163.25 186.53 162.35C188.564 161.45 190.997 161 193.83 161C196.397 161 198.864 161.383 201.23 162.15C203.63 162.917 205.68 163.983 207.38 165.35L203.03 171.6C201.464 170.4 199.88 169.5 198.28 168.9C196.714 168.3 195.08 168 193.38 168C191.814 168 190.597 168.317 189.73 168.95C188.864 169.583 188.43 170.383 188.43 171.35C188.43 172.25 188.78 172.95 189.48 173.45C190.18 173.917 191.114 174.3 192.28 174.6C193.447 174.9 194.714 175.183 196.08 175.45C197.48 175.683 198.864 176.017 200.23 176.45C201.63 176.85 202.914 177.417 204.08 178.15C205.247 178.85 206.18 179.817 206.88 181.05C207.58 182.283 207.93 183.85 207.93 185.75C207.93 187.983 207.364 189.967 206.23 191.7C205.097 193.4 203.48 194.733 201.38 195.7C199.314 196.633 196.864 197.1 194.03 197.1Z" fill="black"/>
<path d="M73 199V53H128.062C138.374 53 147.31 55.0857 154.872 59.2571C162.571 63.4286 168.482 69.1295 172.607 76.36C176.869 83.5905 179 91.8638 179 101.18C179 109.94 176.869 117.866 172.607 124.957C168.482 132.049 162.571 137.68 154.872 141.851C147.31 146.023 138.374 148.109 128.062 148.109H108.471V199H73ZM108.471 119.326H121.875C129.025 119.326 134.318 117.588 137.755 114.111C141.329 110.496 143.117 106.116 143.117 100.971C143.117 95.6876 141.329 91.3076 137.755 87.8314C134.318 84.3552 129.025 82.6171 121.875 82.6171H108.471V119.326Z" fill="black"/>
<path d="M140.35 196.6C138.85 196.6 137.583 196.083 136.55 195.05C135.517 194.017 135 192.767 135 191.3C135 189.833 135.517 188.583 136.55 187.55C137.583 186.517 138.85 186 140.35 186C141.85 186 143.117 186.517 144.15 187.55C145.183 188.583 145.7 189.833 145.7 191.3C145.7 192.767 145.183 194.017 144.15 195.05C143.117 196.083 141.85 196.6 140.35 196.6Z" fill="black"/>
</svg>
